<svg id="圖層_1" data-name="圖層 1" xmlns="http://www.w3.org/2000/svg" viewBox="0 0 100 100"><title>briefcase-2</title><g id="Briefcase"><g id="Fill"><rect x="13.02" y="34.91" width="73.96" height="43.77" rx="3.02" ry="3.02" style="fill:#fff"/></g><g id="Red"><path d="M60.57,21.32H39.43a3,3,0,0,0-3,3v7.55h3V24.34H60.57v7.55h3V24.34A3,3,0,0,0,60.57,21.32Z" style="fill:#ee6a56"/></g><g id="Yellow"><path d="M56,54.53v2.26H44V54.53H13V75.66a3,3,0,0,0,3,3H84a3,3,0,0,0,3-3V54.53Z" style="fill:#ffc868"/></g><g id="Inner_Lines" data-name="Inner Lines" style="opacity:0.15000000596046448"><path d="M16,68.87a.76.76,0,0,0-.76-.76H13v1.51h2.26A.76.76,0,0,0,16,68.87Zm-1.51-3a.76.76,0,0,0-.76-.76H13V66.6h.75A.75.75,0,0,0,14.53,65.85Zm2.26,5.28H13v1.51h3.77a.76.76,0,1,0,0-1.51Zm66.42-31.7a.76.76,0,0,0-.76.76.75.75,0,0,0,.76.75H87V39.43ZM84,43.21a.76.76,0,0,0,.76.75H87V42.45H84.72A.76.76,0,0,0,84,43.21Zm1.51,3a.76.76,0,0,0,.76.75H87V45.47h-.75A.76.76,0,0,0,85.47,46.23Z"/></g><g id="Shadows" style="opacity:0.10000000149011612"><path d="M42.45,59.81A1.52,1.52,0,0,0,44,61.32H56a1.52,1.52,0,0,0,1.51-1.51v-3A1.51,1.51,0,0,1,56,58.3H44a1.51,1.51,0,0,1-1.51-1.51Zm0-5.28H13V56H42.45ZM56,55.28H44v1.51H56Zm1.51-.75V56H87V54.53ZM84,77.17H16a3,3,0,0,1-3-3v1.51a3,3,0,0,0,3,3H84a3,3,0,0,0,3-3V74.15A3,3,0,0,1,84,77.17Z"/></g><g id="Outline"><path d="M84,31.89H66.6V24.34a6,6,0,0,0-6-6H39.43a6,6,0,0,0-6,6v7.55H16a6,6,0,0,0-6,6V75.66a6,6,0,0,0,6,6H84a6,6,0,0,0,6-6V37.92A6,6,0,0,0,84,31.89ZM36.42,24.34a3,3,0,0,1,3-3H60.57a3,3,0,0,1,3,3v7.55h-3V24.34H39.43v7.55h-3Zm21.13,3v4.53H42.45V27.36ZM87,75.66a3,3,0,0,1-3,3H16a3,3,0,0,1-3-3V54.53H42.45v2.26A1.51,1.51,0,0,0,44,58.3H56a1.51,1.51,0,0,0,1.51-1.51V54.53H87ZM44,56.79V49.25h1.51v7.54Zm3,0V49.25h6v7.54Zm7.55,0V49.25H56v7.54ZM87,51.51H57.55V49.25A1.51,1.51,0,0,0,56,47.74H44a1.51,1.51,0,0,0-1.51,1.51v2.26H13V37.92a3,3,0,0,1,3-3H84a3,3,0,0,1,3,3Z" style="fill:#171c1f"/></g></g></svg>