<svg id="圖層_1" data-name="圖層 1" xmlns="http://www.w3.org/2000/svg" viewBox="0 0 100 100"><title>compass</title><g id="Compass"><g id="Fill"><path d="M55,22.24a6.09,6.09,0,1,0-10.06,0,33.47,33.47,0,1,0,10.06,0Zm-5-2.67a.76.76,0,1,1,.76-.76A.76.76,0,0,1,50,19.57Z" style="fill:#fff"/></g><g id="Blue"><circle cx="50" cy="55.33" r="26.62" style="fill:#70cbf6"/></g><g id="Black"><path d="M44.86,49.41l-.41.41-.36.37c-2.35,2.35-4.7,11.56-5.84,16.89,5.33-1.13,14.57-3.49,16.91-5.83l.46-.48.3-.3c2.34-2.34,4.69-11.56,5.82-16.89C56.43,44.68,47.19,47.07,44.86,49.41Z" style="fill:#171c1f"/></g><g id="Red"><path d="M45.94,50.19l9.21,9.21c1.4-1.59,3.31-7.08,5-14.17C53,46.88,47.53,48.79,45.94,50.19Z" style="fill:#ff7575"/></g><g id="White"><path d="M44.86,51.27c-1.4,1.61-3.31,7.08-5,14.15,7.06-1.64,12.54-3.54,14.16-4.94Z" style="fill:#fff"/></g><g id="Shadows" style="opacity:0.10000000149011612"><path d="M55.62,60.77l-.46.48c-2.28,2.28-11,4.56-16.37,5.71-.2.85-.39,1.66-.54,2.39,5.32-1.13,14.56-3.49,16.91-5.83l.45-.47.3-.31c2.34-2.34,4.69-11.56,5.82-16.88l-.54.11C60,51.3,57.92,58.44,55.87,60.42ZM50,32.51A25.87,25.87,0,0,1,75.82,56.85c0-.5,0-1,0-1.52a25.87,25.87,0,1,0-51.73,0c0,.51,0,1,.05,1.52A25.86,25.86,0,0,1,50,32.51ZM82,54.57a31.95,31.95,0,0,1-63.9,0v.76a31.95,31.95,0,0,0,63.9,0Z"/></g><g id="Inner_Lines" data-name="Inner Lines" style="opacity:0.25"><path d="M50,73.58a.76.76,0,0,0-.76.76v1.53a.76.76,0,0,0,1.52,0V74.34A.76.76,0,0,0,50,73.58Zm-19-19H29.46a.76.76,0,1,0,0,1.52H31a.76.76,0,1,0,0-1.52Zm5-14.3a.76.76,0,0,0-1.08.08.77.77,0,0,0,0,1L36,42.4a.76.76,0,0,0,1-.24.79.79,0,0,0,0-.81ZM50,34a.76.76,0,0,0-.76.76v1.52a.76.76,0,0,0,1.52,0V34.79A.76.76,0,0,0,50,34ZM70.54,54.57H69a.76.76,0,0,0,0,1.52h1.53a.76.76,0,1,0,0-1.52ZM64,68.26a.76.76,0,1,0-1.29.81.69.69,0,0,0,.24.24L64,70.38a.76.76,0,0,0,1.07-.08.75.75,0,0,0,0-1Z" style="fill:#171c1f"/></g><g id="Outline"><path d="M58.74,21.44a9.13,9.13,0,1,0-17.5,0,35,35,0,1,0,17.5,0ZM50,87.28a31.95,31.95,0,0,1-3.74-63.67,6.08,6.08,0,1,1,8.54-1.05,6.52,6.52,0,0,1-1,1.05A31.95,31.95,0,0,1,50,87.28Zm0-59.34A27.39,27.39,0,1,0,77.38,55.33,27.39,27.39,0,0,0,50,27.94Zm0,53.25A25.87,25.87,0,1,1,75.86,55.33,25.86,25.86,0,0,1,50,81.19Zm0-59.33a3,3,0,1,0-3-3.05A3,3,0,0,0,50,21.86Zm0-3.81a.76.76,0,1,1-.76.76A.76.76,0,0,1,50,18.05Z" style="fill:#171c1f"/></g></g></svg>