<svg id="圖層_1" data-name="圖層 1" xmlns="http://www.w3.org/2000/svg" viewBox="0 0 100 100"><title>folder</title><g id="Inner_Lines_1" data-name="Inner Lines 1"><path d="M75,60.5,71,23.75a1.32,1.32,0,0,0-1.49-1.14h0L38,26.11a1.3,1.3,0,0,0-1.13,1.49h0L41,64.35a1.31,1.31,0,0,0,1.49,1.14h0L74,62a1.31,1.31,0,0,0,1-1.49ZM42.21,64.17,38.1,27.42l31.5-3.5,4.2,36.75Z" style="fill:#171c1f"/></g><g id="White"><rect x="40.12" y="25.58" width="31.67" height="37.01" transform="translate(-4.54 6.47) rotate(-6.36)" style="fill:#fff"/></g><g id="Inner_Lines_3" data-name="Inner Lines 3"><path d="M79.84,28.82,48.25,26.37a1.3,1.3,0,0,0-1.4,1.23l-2.8,36.92a1.28,1.28,0,0,0,1.23,1.4h0l31.58,2.45a1.29,1.29,0,0,0,1.4-1.22L81,30.22A1.18,1.18,0,0,0,79.84,28.82ZM77,67,45.36,64.61l2.8-36.83,31.59,2.36Z" style="fill:#171c1f"/></g><g id="White-2"><rect x="44.27" y="31.5" width="37.1" height="31.76" transform="translate(10.58 106.22) rotate(-85.43)" style="fill:#fff"/></g><g id="Fill"><path d="M82.38,31.54H63.21C58,31.54,42.74,21,37.49,21H17.62A2.63,2.63,0,0,0,15,23.57V76.42a2.63,2.63,0,0,0,2.62,2.63H82.38A2.64,2.64,0,0,0,85,76.42V34.16A2.64,2.64,0,0,0,82.38,31.54Z" style="fill:#c2e7f7"/></g><g id="Shadows" style="opacity:0.10000000149011612"><rect x="17.63" y="69.77" width="64.75" height="3.94"/></g><g id="Inner_Lines_4" data-name="Inner Lines 4" style="opacity:0.25"><rect x="17.63" y="69.77" width="64.75" height="1.31" style="fill:#171c1f"/></g><g id="Outline"><path d="M82.38,31.54H63.21C58,31.54,42.74,21,37.49,21H17.62A2.63,2.63,0,0,0,15,23.57V76.42a2.63,2.63,0,0,0,2.62,2.63H82.38A2.64,2.64,0,0,0,85,76.42V34.16A2.64,2.64,0,0,0,82.38,31.54Zm0,44.88H17.62V23.57H37.4c2,0,7.61,2.89,11.64,5,6.73,3.5,11,5.6,14.08,5.6H82.38Z" style="fill:#171c1f"/></g></svg>