<svg id="圖層_1" data-name="圖層 1" xmlns="http://www.w3.org/2000/svg" viewBox="0 0 100 100"><title>gavel</title><path d="M51.06,55.6C59.71,66.35,72.3,80.51,73.7,81.91a5.75,5.75,0,0,0,8.13-8.13c-1.4-1.4-15.56-14.08-26.31-22.64-.7.78-1.49,1.57-2.19,2.27s-1.49,1.49-2.27,2.19M17.84,44.14l-.18.18a4.17,4.17,0,0,0,0,5.94L36.2,68.8a4.17,4.17,0,0,0,5.94,0l.18-.18a4.17,4.17,0,0,0,0-5.94L23.78,44.14a4.16,4.16,0,0,0-5.94,0M50.27,17.66,68.8,36.19a4.17,4.17,0,0,1,0,5.94l-.17.18a4.18,4.18,0,0,1-5.95,0L44.15,23.78a4.18,4.18,0,0,1,0-6l.18-.17a4.16,4.16,0,0,1,5.94,0" style="fill:#7c6335"/><path d="M44.24,23.86l-.09-.08A74.74,74.74,0,0,0,33.05,33a80.43,80.43,0,0,0-9.27,11.1l.09.09L42.23,62.59l.09.09a76,76,0,0,0,11.1-9.27,79.62,79.62,0,0,0,9.26-11.1l-.08-.09Z" style="fill:#f9da58"/><path d="M49.22,18.62,67.75,37.15a2.76,2.76,0,0,1,0,3.93l-.17.18a2.84,2.84,0,0,1-3.93,0l-.09-.09L45.2,22.81l-.09-.08h0a2.75,2.75,0,0,1-.78-1.93,3.13,3.13,0,0,1,1-2.18,2.84,2.84,0,0,1,3.93,0ZM55.69,53c10.67,8.57,23.87,20.37,25.18,21.77A4.39,4.39,0,0,1,74.66,81c-1.4-1.4-13.2-14.51-21.77-25.18.44-.44,1-.87,1.4-1.4a18.48,18.48,0,0,0,1.4-1.4ZM25.62,44A80.62,80.62,0,0,1,34,34a74.18,74.18,0,0,1,10-8.39L60.85,42.48a81.51,81.51,0,0,1-8.39,10,73.45,73.45,0,0,1-10,8.39Zm15.65,23.6-.18.18a2.84,2.84,0,0,1-3.93,0L18.62,49.21a2.71,2.71,0,0,1-.78-1.92,3.11,3.11,0,0,1,1-2.18,2.69,2.69,0,0,1,3.93,0l.09.08L41.27,63.64h0a2.7,2.7,0,0,1,0,3.93ZM43.1,16.78a5.7,5.7,0,0,0-1,6.65A82.9,82.9,0,0,0,32,32a77.72,77.72,0,0,0-8.57,10.14,5.74,5.74,0,0,0-6.73,9.1L35.15,69.76a5.65,5.65,0,0,0,8,0l.18-.18a5.37,5.37,0,0,0,1.66-3.93,5.55,5.55,0,0,0-.7-2.62c2.27-1.66,4.54-3.41,6.73-5.34,8.57,10.58,20.46,23.78,21.77,25.18A7.17,7.17,0,0,0,82.88,72.73c-1.4-1.31-14.6-13.2-25.27-21.85A74.69,74.69,0,0,0,63,44.14a5.58,5.58,0,0,0,6.64-1l.17-.17a5.47,5.47,0,0,0,0-7.87L51.23,16.61a5.87,5.87,0,0,0-8.13.17Z"/><path d="M54.55,50.09l-1.22,1.22a1.21,1.21,0,0,0-.35,1,1,1,0,0,0,.52,1C64,61.8,76.76,73.25,78.16,74.65a4.49,4.49,0,0,1,0,6.21,4.32,4.32,0,0,1-2,1.14,1.41,1.41,0,0,0-1.05,1.4,1.31,1.31,0,0,0,1.05,1.31A7.26,7.26,0,0,0,83,82.87a7.18,7.18,0,0,0,2.1-5.07A6.86,6.86,0,0,0,83,72.73C81.48,71.33,67.32,58.66,56.48,50a1.38,1.38,0,0,0-1.93.09" style="opacity:0.23999999463558197;isolation:isolate"/></svg>