<svg id="圖層_1" data-name="圖層 1" xmlns="http://www.w3.org/2000/svg" viewBox="0 0 100 100"><title>youtube</title><path d="M15,47.22a106,106,0,0,1,.7-11.33s.68-4.82,2.78-6.95c2.66-2.78,6.16-2.7,7.72-3,5.6-.54,23.8-.7,23.8-.7s14.71,0,24.5.73a10,10,0,0,1,7,3c2.1,2.13,2.78,7,2.78,7A105.76,105.76,0,0,1,85,47.22v5.51a105.76,105.76,0,0,1-.7,11.33s-.68,4.82-2.78,7a10,10,0,0,1-7,3c-9.79.71-24.5.73-24.5.73s-18.2-.16-23.8-.7c-1.56-.29-5.06-.21-7.72-3-2.1-2.13-2.78-7-2.78-7A105.76,105.76,0,0,1,15,52.73Z" style="fill:red"/><polygon points="42.77 59.16 42.77 39.5 61.69 49.36 42.79 59.16 42.77 59.16" style="fill:#fff"/></svg>