<svg id="圖層_1" data-name="圖層 1" xmlns="http://www.w3.org/2000/svg" viewBox="0 0 80 80"><title>右邊廣告 拷貝</title><path d="M36.37,0h10a0,0,0,0,1,0,0V45.33a0,0,0,0,1,0,0H35.52a.52.52,0,0,1-.52-.52V1.37A1.37,1.37,0,0,1,36.37,0Z" transform="translate(63.33 -18) rotate(90)" style="fill:#f05d4b"/><path d="M19.63,15h40A4.41,4.41,0,0,1,64,19.41V29a0,0,0,0,1,0,0H16a0,0,0,0,1,0,0V18.63A3.63,3.63,0,0,1,19.63,15Z" style="fill:none;stroke:#555e65;stroke-miterlimit:10;stroke-width:2px"/><circle cx="25.89" cy="20.53" r="1.92" style="fill:#fff"/><circle cx="25.25" cy="19.88" r="1.92" style="fill:#555e65"/><line x1="26" y1="19.67" x2="26" y2="11" style="fill:none;stroke:#555e65;stroke-miterlimit:10;stroke-width:2px"/><line x1="24.67" y1="19.67" x2="24.67" y2="11" style="fill:none;stroke:#f5f5f5;stroke-miterlimit:10;stroke-width:2px"/><circle cx="55.4" cy="20.53" r="1.92" style="fill:#fff"/><circle cx="54.76" cy="19.88" r="1.92" style="fill:#555e65"/><line x1="55.33" y1="19.67" x2="55.33" y2="11" style="fill:none;stroke:#555e65;stroke-miterlimit:10;stroke-width:2px"/><line x1="54" y1="19.67" x2="54" y2="11" style="fill:none;stroke:#f5f5f5;stroke-miterlimit:10;stroke-width:2px"/><line x1="35.33" y1="25.67" x2="44.67" y2="25.67" style="fill:none;stroke:#555e65;stroke-miterlimit:10;stroke-width:2px"/><path d="M16,29H64a0,0,0,0,1,0,0V63.49A3.51,3.51,0,0,1,60.49,67H20.41A4.41,4.41,0,0,1,16,62.59V29A0,0,0,0,1,16,29Z" style="fill:#fff;stroke:#555e65;stroke-miterlimit:10;stroke-width:2px"/><text transform="translate(23.33 52.5)" style="font-size:15.333340644836426px;fill:#f05d4b;font-family:FZLTTHB--B51-0, Lantinghei TC">123</text></svg>