<svg id="圖層_1" data-name="圖層 1" xmlns="http://www.w3.org/2000/svg" viewBox="0 0 80 80"><title>右邊廣告 拷貝</title><g id="Mail"><polygon points="64.87 36.87 15.5 36.87 15.5 32.36 40.18 18.92 64.87 32.36 64.87 36.87" style="fill:#fff"/><polygon points="17.4 36.24 17.4 33.14 41.45 20.08 65.5 33.14 65.5 36.24 17.4 36.24" style="fill:#c2e7f7"/><polygon points="64.87 36.87 15.5 36.87 15.5 32.36 40.18 18.92 64.87 32.36 64.87 36.87" style="fill:none;stroke:#555e65;stroke-miterlimit:10;stroke-width:2px"/><rect x="18.66" y="23.58" width="42.41" height="28.48" rx="4" ry="4" style="fill:#fff"/><rect x="20.56" y="25.48" width="41.14" height="26.58" rx="2" ry="2" style="fill:#faf7de"/><rect x="18.66" y="23.58" width="42.41" height="28.48" rx="4" ry="4" style="fill:none;stroke:#555e65;stroke-miterlimit:10;stroke-width:2px"/><polygon points="18.95 36.87 64.87 61.37 64.87 64.72 15.5 64.72 15.5 36.87 18.95 36.87" style="fill:#fff"/><polygon points="17.4 64.72 64.87 64.72 64.87 63.37 19.84 38.77 17.4 38.77 17.4 64.72" style="fill:#c2e7f7"/><polygon points="18.95 36.87 64.87 61.37 64.87 64.72 15.5 64.72 15.5 36.87 18.95 36.87" style="fill:none;stroke:#555e65;stroke-miterlimit:10;stroke-width:2px"/><polygon points="61.41 36.87 15.5 61.37 15.5 64.72 64.87 64.72 64.87 36.87 61.41 36.87" style="fill:#fff"/><polygon points="64.87 64.72 16.77 64.72 16.77 63.02 61.94 38.77 64.87 38.77 64.87 64.72" style="fill:#c2e7f7"/><polygon points="61.41 36.87 15.5 61.37 15.5 64.72 64.87 64.72 64.87 36.87 61.41 36.87" style="fill:none;stroke:#555e65;stroke-miterlimit:10;stroke-width:2px"/><line x1="44.65" y1="50.44" x2="61.02" y2="59.25" style="fill:none;stroke:#555e65;stroke-miterlimit:10;stroke-width:2px"/><line x1="31.32" y1="32.44" x2="38.92" y2="32.44" style="fill:none;stroke:#555e65;stroke-miterlimit:10;stroke-width:2px"/><line x1="31.32" y1="36.87" x2="49.68" y2="36.87" style="fill:none;stroke:#555e65;stroke-miterlimit:10;stroke-width:2px"/></g></svg>