<svg id="圖層_1" data-name="圖層 1" xmlns="http://www.w3.org/2000/svg" viewBox="0 0 80 80"><title>右邊廣告 拷貝</title><g id="Shirt"><path d="M62.49,47.43V60.68a4,4,0,0,1-3.83,3.81H23a4,4,0,0,1-3.83-3.81V47.43l-3-3A2.15,2.15,0,0,1,15.5,43V29a2.13,2.13,0,0,1,.78-1.43l3.09-2.86H30v-3c0-.79.77-1.19,1.56-1.19H50.09c.79,0,1.55.4,1.55,1.19v3H62.23L65,27.59A1.83,1.83,0,0,1,65.5,29V43a2,2,0,0,1-.35,1.51Z" style="fill:#f6f6f6;fill-rule:evenodd"/><path d="M65.06,28.69l-1.29-1.3a5,5,0,0,0-3.44-1.46H51V21.72H32.87c-.72,0-1.1.61-1.1,1.34v2.87H22.26a4.85,4.85,0,0,0-3.39,1.46l-.26.29a4.59,4.59,0,0,0-1.3,3.22V44.44a1.08,1.08,0,0,0,.19.82L19.12,47V42.2h1.8v19a2.64,2.64,0,0,0,2.52,2.71H59.15a2.83,2.83,0,0,0,2.74-2.71V47.51l3.25-3.23a1.17,1.17,0,0,0,.36-.82V29.51A1.24,1.24,0,0,0,65.06,28.69Z" style="fill:#c2e7f7;fill-rule:evenodd"/><path d="M62.49,47.62V42.2" style="fill:none;stroke:#555e65;stroke-miterlimit:10;stroke-width:2px;fill-rule:evenodd"/><path d="M19.12,47.62V42.2" style="fill:none;stroke:#555e65;stroke-miterlimit:10;stroke-width:2px;fill-rule:evenodd"/><path d="M40.8,30.15V62.08" style="fill:none;stroke:#555e65;stroke-miterlimit:10;stroke-width:2px;fill-rule:evenodd"/><path d="M31.87,22.06l8.93,6.07,8.93-6.07" style="fill:none;stroke:#555e65;stroke-miterlimit:10;stroke-width:2px;fill-rule:evenodd"/><path d="M30.09,24.56l7.14,7.14,3.57-3.57,3.57,3.57,7.15-7.14" style="fill:none;stroke:#555e65;stroke-miterlimit:10;stroke-width:2px;fill-rule:evenodd"/><path d="M62.49,47.43V60.68a4,4,0,0,1-3.83,3.81H23a4,4,0,0,1-3.83-3.81V47.43l-1.89-1.86a5.89,5.89,0,0,1-1.73-4.13V30.1a4.88,4.88,0,0,1,1.55-3.36l.37-.22A6.52,6.52,0,0,1,22,24.73H30v-3c0-.79.77-1.19,1.56-1.19H50.09c.79,0,1.55.4,1.55,1.19v3h7.94a6.34,6.34,0,0,1,4.53,1.79l.15.26A4.53,4.53,0,0,1,65.5,30.1V41.44a5.63,5.63,0,0,1-1.43,4.13Z" style="fill:none;stroke:#555e65;stroke-miterlimit:10;stroke-width:2px;fill-rule:evenodd"/><line x1="46.22" y1="45.21" x2="58.27" y2="45.21" style="fill:none;stroke:#555e65;stroke-miterlimit:10;stroke-width:2px"/><polygon points="56.62 45.21 48.29 45.21 52.46 41.05 56.62 45.21" style="fill:#f05d4b;stroke:#555e65;stroke-miterlimit:10;stroke-width:2px;fill-rule:evenodd"/></g></svg>