<svg id="圖層_1" data-name="圖層 1" xmlns="http://www.w3.org/2000/svg" viewBox="0 0 80 80"><title>右邊廣告 拷貝</title><g id="Compass"><path d="M41.86,23.11a25,25,0,0,0-19,41.19A25,25,0,0,0,58,29.07,24.89,24.89,0,0,0,41.86,23.11Z" style="fill:#dcdfe1"/><polygon points="35.21 41.47 42.79 49.04 46.58 37.68 35.21 41.47" style="fill:#f05d4b"/><line x1="38.68" y1="22.96" x2="38.68" y2="28.71" style="fill:none;stroke:#555e65;stroke-miterlimit:10"/><line x1="38.68" y1="61.95" x2="38.68" y2="67.7" style="fill:none;stroke:#555e65;stroke-miterlimit:10"/><line x1="54.66" y1="29.6" x2="52.22" y2="32.04" style="fill:none;stroke:#555e65;stroke-miterlimit:10"/><line x1="25.78" y1="58.47" x2="23.34" y2="60.91" style="fill:none;stroke:#555e65;stroke-miterlimit:10"/><line x1="54.66" y1="60.91" x2="52.22" y2="58.47" style="fill:none;stroke:#555e65;stroke-miterlimit:10"/><line x1="25.78" y1="32.04" x2="23.34" y2="29.6" style="fill:none;stroke:#555e65;stroke-miterlimit:10"/><line x1="61.37" y1="45.01" x2="55.62" y2="45.01" style="fill:none;stroke:#555e65;stroke-miterlimit:10"/><line x1="22.38" y1="45.01" x2="16.63" y2="45.01" style="fill:none;stroke:#555e65;stroke-miterlimit:10"/><line x1="39" y1="15.93" x2="39" y2="20.4" style="fill:none;stroke:#555e65;stroke-miterlimit:10;stroke-width:4px"/><circle cx="39" cy="11.68" r="4.29" style="fill:none;stroke:#555e65;stroke-miterlimit:10"/><circle cx="39" cy="45.25" r="25" style="fill:none;stroke:#555e65;stroke-miterlimit:10;stroke-width:2px"/><line x1="35.21" y1="41.47" x2="42.79" y2="49.04" style="fill:none;stroke:#555e65;stroke-miterlimit:10;stroke-width:2px"/><polygon points="35.21 41.47 31.42 52.83 42.79 49.04 46.58 37.68 35.21 41.47" style="fill:none;stroke:#555e65;stroke-miterlimit:10;stroke-width:2px"/></g></svg>