<svg id="圖層_1" data-name="圖層 1" xmlns="http://www.w3.org/2000/svg" viewBox="0 0 80 80"><title>右邊廣告 拷貝</title><g id="Notepad"><rect x="17.37" y="25.82" width="46.47" height="32.59" transform="translate(82.72 1.51) rotate(90)" style="fill:#faf7de"/><rect x="22.5" y="16.47" width="35" height="49.48" rx="2" ry="2" style="fill:none;stroke:#555e65;stroke-miterlimit:10;stroke-width:2px"/><line x1="24.91" y1="26.72" x2="56.9" y2="26.72" style="fill:none;stroke:#555e65;stroke-miterlimit:10;stroke-width:2px"/><line x1="24.91" y1="36.98" x2="56.9" y2="36.98" style="fill:none;stroke:#555e65;stroke-miterlimit:10;stroke-width:2px"/><line x1="24.91" y1="46.64" x2="56.9" y2="46.64" style="fill:none;stroke:#555e65;stroke-miterlimit:10;stroke-width:2px"/><line x1="24.91" y1="56.29" x2="56.9" y2="56.29" style="fill:none;stroke:#555e65;stroke-miterlimit:10;stroke-width:2px"/><line x1="28.53" y1="14.05" x2="28.53" y2="19.48" style="fill:none;stroke:#555e65;stroke-miterlimit:10;stroke-width:2px"/><line x1="34.57" y1="14.05" x2="34.57" y2="19.48" style="fill:none;stroke:#555e65;stroke-miterlimit:10;stroke-width:2px"/><line x1="40" y1="14.05" x2="40" y2="19.48" style="fill:none;stroke:#555e65;stroke-miterlimit:10;stroke-width:2px"/><line x1="45.43" y1="14.05" x2="45.43" y2="19.48" style="fill:none;stroke:#555e65;stroke-miterlimit:10;stroke-width:2px"/><line x1="51.47" y1="14.05" x2="51.47" y2="19.48" style="fill:none;stroke:#555e65;stroke-miterlimit:10;stroke-width:2px"/><line x1="27.33" y1="14.05" x2="27.33" y2="19.48" style="fill:none;stroke:#fff;stroke-miterlimit:10;stroke-width:2px"/><line x1="33.36" y1="14.05" x2="33.36" y2="19.48" style="fill:none;stroke:#fff;stroke-miterlimit:10;stroke-width:2px"/><line x1="38.79" y1="14.05" x2="38.79" y2="19.48" style="fill:none;stroke:#fff;stroke-miterlimit:10;stroke-width:2px"/><line x1="44.22" y1="14.05" x2="44.22" y2="19.48" style="fill:none;stroke:#fff;stroke-miterlimit:10;stroke-width:2px"/><line x1="50.26" y1="14.05" x2="50.26" y2="19.48" style="fill:none;stroke:#fff;stroke-miterlimit:10;stroke-width:2px"/></g></svg>