<svg id="圖層_1" data-name="圖層 1" xmlns="http://www.w3.org/2000/svg" viewBox="0 0 80 80"><title>右邊廣告 拷貝</title><g id="Heart"><path d="M41.19,66.43c-2.81-1.17-14.32-6.29-21.68-14.85-6.72-7.82-8.88-17.08-5.63-24.16a14.15,14.15,0,0,1,13.23-8.28h.2c7.42.08,12.3,7.38,12.34,7.45l1.54,2.54,1.54-2.54c.05-.08,4.92-7.37,12.35-7.45h.19a14.15,14.15,0,0,1,13.24,8.28c3.25,7.08,1.09,16.34-5.64,24.16C55.52,60.14,44,65.26,41.19,66.43Z" style="fill:#f05d4b"/><path d="M53.59,16.55c-7.83.09-13,7.21-13.59,8.15-.57-.94-5.76-8.06-13.59-8.15-15.32-.17-23.14,18.25-9,34.71C26,61.3,40,66.57,40,66.57S54,61.3,62.59,51.26C76.73,34.8,68.91,16.38,53.59,16.55Z" style="fill:none;stroke:#555e65;stroke-miterlimit:10;stroke-width:2px"/></g></svg>