<svg id="圖層_1" data-name="圖層 1" xmlns="http://www.w3.org/2000/svg" viewBox="0 0 80 80"><title>右邊廣告 拷貝</title><g id="Location"><path d="M25.19,54a22.44,22.44,0,1,1,31.74,0L41.06,69.86ZM40.71,27.82a9.36,9.36,0,1,0,9.36,9.35A9.36,9.36,0,0,0,40.71,27.82Z" style="fill:#f05d4b"/><path d="M56.62,19.82h0a23.52,23.52,0,0,0-33.24,0h0a23.52,23.52,0,0,0,0,33.24L40,69.67,56.62,53.06A23.52,23.52,0,0,0,56.62,19.82ZM40,43.49a7.64,7.64,0,1,1,7.64-7.64A7.64,7.64,0,0,1,40,43.49Z" style="fill:none;stroke:#555e65;stroke-miterlimit:10;stroke-width:2px"/></g></svg>