<svg id="圖層_1" data-name="圖層 1" xmlns="http://www.w3.org/2000/svg" viewBox="0 0 80 80"><title>右邊廣告 拷貝</title><g id="Chat"><path d="M40.36,64A23.63,23.63,0,1,1,59.77,53.86l-.41.58,2.48,6.82a.4.4,0,0,1-.05.41.46.46,0,0,1-.37.2h0a.45.45,0,0,1-.16,0l-6.82-2.48-.58.41A23.5,23.5,0,0,1,40.36,64Z" style="fill:#d8eac6"/><path d="M59.52,53.27a25,25,0,1,0-6.25,6.25l6.16,2.24a1.82,1.82,0,0,0,2.33-2.33Z" style="fill:none;stroke:#555e65;stroke-miterlimit:10;stroke-width:2px"/><circle cx="39.91" cy="39.91" r="1.82" style="fill:#fff"/><circle cx="30.82" cy="39.91" r="1.82" style="fill:#fff"/><circle cx="49" cy="39.91" r="1.82" style="fill:#fff"/><circle cx="39" cy="39" r="1.82" style="fill:#555e65"/><circle cx="29.91" cy="39" r="1.82" style="fill:#555e65"/><circle cx="48.09" cy="39" r="1.82" style="fill:#555e65"/></g></svg>