<svg id="圖層_1" data-name="圖層 1" xmlns="http://www.w3.org/2000/svg" viewBox="0 0 80 80"><title>右邊廣告 拷貝</title><g id="Settings"><path d="M64.16,49,60,45.88a20.36,20.36,0,0,0,0-9.4l4.21-3.1a2,2,0,0,0,.57-2.68L61.43,25a2,2,0,0,0-2.59-.85L54,26.25a20.31,20.31,0,0,0-8.14-4.7l-.57-5a1.92,1.92,0,0,0-2-1.66H36.71a1.92,1.92,0,0,0-2,1.66l-.57,5.12A20.23,20.23,0,0,0,26,26.29l-4.8-2.12a2,2,0,0,0-2.59.84l-3.3,5.7a2,2,0,0,0,.57,2.67l4.21,3.1a20.36,20.36,0,0,0,0,9.4L15.84,49a2,2,0,0,0-.57,2.67l3.3,5.7a2,2,0,0,0,2.59.86l4.8-2.1a20.31,20.31,0,0,0,8.14,4.7l.57,5.36a2.21,2.21,0,0,0,2,2h6.58a2.21,2.21,0,0,0,2-2l.57-5.28A20.39,20.39,0,0,0,54,56.15l4.8,2.08a2,2,0,0,0,2.59-.87l3.3-5.7A2.05,2.05,0,0,0,64.16,49ZM40,51.43A10.25,10.25,0,1,1,50.25,41.18,10.25,10.25,0,0,1,40,51.43Z" style="fill:#fff"/><path d="M37.73,67.51a.59.59,0,0,1-.5-.55l-.69-6.26-1-.31A19,19,0,0,1,28,56l-.74-.7-5.73,2.51a.65.65,0,0,1-.2,0,.52.52,0,0,1-.45-.26l-3.29-5.7a.52.52,0,0,1,.14-.67l5-3.7-.23-1a18.81,18.81,0,0,1,0-8.7l.23-1-5-3.7a.52.52,0,0,1-.14-.67l3.29-5.7a.52.52,0,0,1,.45-.26.46.46,0,0,1,.2.05l5.73,2.5L28,28.4A19,19,0,0,1,35.56,24l1-.29.69-6.36c0-.26.24-.61.5-.61h6.59c.26,0,.48.35.5.61l.69,6.28,1,.33A19,19,0,0,1,54,28.38l.74.7,5.73-2.5a.45.45,0,0,1,.2,0,.52.52,0,0,1,.45.26l3.29,5.7a.52.52,0,0,1-.14.67l-5,3.7.23,1a18.81,18.81,0,0,1,0,8.7l-.23,1,5,3.7a.51.51,0,0,1,.14.67l-3.29,5.7a.52.52,0,0,1-.45.26h0a.46.46,0,0,1-.2,0l-5.73-2.51L54,56a18.86,18.86,0,0,1-7.52,4.35l-1,.3L44.82,67a.59.59,0,0,1-.5.55ZM41,30.42A11.79,11.79,0,1,0,52.81,42.2,11.8,11.8,0,0,0,41,30.42Z" style="fill:#c2e7f7"/><path d="M49.31,22.89a20,20,0,0,0-7.26-2.13" style="fill:none;stroke:#555e65;stroke-miterlimit:10;stroke-width:2px"/><path d="M38,20.76a20,20,0,0,0-7.26,2.13" style="fill:none;stroke:#555e65;stroke-miterlimit:10;stroke-width:2px"/><path d="M28.81,24a20.37,20.37,0,0,0-5.47,5.22" style="fill:none;stroke:#555e65;stroke-miterlimit:10;stroke-width:2px"/><path d="M21.29,32.75A20.23,20.23,0,0,0,19.5,40.1" style="fill:none;stroke:#555e65;stroke-miterlimit:10;stroke-width:2px"/><path d="M19.5,42.26a20.23,20.23,0,0,0,1.79,7.35" style="fill:none;stroke:#555e65;stroke-miterlimit:10;stroke-width:2px"/><path d="M23.34,53.17a20.52,20.52,0,0,0,5.47,5.22" style="fill:none;stroke:#555e65;stroke-miterlimit:10;stroke-width:2px"/><path d="M30.69,59.47A20.37,20.37,0,0,0,38,61.6" style="fill:none;stroke:#555e65;stroke-miterlimit:10;stroke-width:2px"/><path d="M42.05,61.6a20.37,20.37,0,0,0,7.26-2.13" style="fill:none;stroke:#555e65;stroke-miterlimit:10;stroke-width:2px"/><path d="M51.19,58.39a20.52,20.52,0,0,0,5.47-5.22" style="fill:none;stroke:#555e65;stroke-miterlimit:10;stroke-width:2px"/><path d="M58.71,49.61a20.23,20.23,0,0,0,1.79-7.35" style="fill:none;stroke:#555e65;stroke-miterlimit:10;stroke-width:2px"/><path d="M60.5,40.1a20.23,20.23,0,0,0-1.79-7.35" style="fill:none;stroke:#555e65;stroke-miterlimit:10;stroke-width:2px"/><path d="M56.66,29.19A20.37,20.37,0,0,0,51.19,24" style="fill:none;stroke:#555e65;stroke-miterlimit:10;stroke-width:2px"/><path d="M64.16,49,60,45.88a20.36,20.36,0,0,0,0-9.4l4.21-3.1a2,2,0,0,0,.57-2.68L61.43,25a2,2,0,0,0-2.59-.85L54,26.25a20.31,20.31,0,0,0-8.14-4.7l-.57-5a1.92,1.92,0,0,0-2-1.66H36.71a1.92,1.92,0,0,0-2,1.66l-.57,5.12A20.23,20.23,0,0,0,26,26.29l-4.8-2.12a2,2,0,0,0-2.59.84l-3.3,5.7a2,2,0,0,0,.57,2.67l4.21,3.1a20.36,20.36,0,0,0,0,9.4L15.84,49a2,2,0,0,0-.57,2.67l3.3,5.7a2,2,0,0,0,2.59.86l4.8-2.1a20.31,20.31,0,0,0,8.14,4.7l.57,5.36a2.21,2.21,0,0,0,2,2h6.58a2.21,2.21,0,0,0,2-2l.57-5.28A20.39,20.39,0,0,0,54,56.15l4.8,2.08a2,2,0,0,0,2.59-.87l3.3-5.7A2.05,2.05,0,0,0,64.16,49ZM40,51.43A10.25,10.25,0,1,1,50.25,41.18,10.25,10.25,0,0,1,40,51.43Z" style="fill:none;stroke:#555e65;stroke-miterlimit:10;stroke-width:2px"/></g></svg>