<svg xmlns="http://www.w3.org/2000/svg" viewBox="0 0 106 106"><defs><style>.cls-1{fill:#fff;}.cls-2{fill:#ee6a56;}.cls-3{fill:#ffc868;}.cls-4{opacity:0.15;}.cls-5{opacity:0.1;}.cls-6{fill:#171c1f;}</style></defs><title>briefcase</title><g id="Briefcase"><g id="Fill"><rect class="cls-1" x="4" y="31" width="98" height="58" rx="4" ry="4"/></g><g id="Red"><path class="cls-2" d="M67,13H39a4,4,0,0,0-4,4V27h4V17H67V27h4V17A4,4,0,0,0,67,13Z"/></g><g id="Yellow"><path class="cls-3" d="M61,57v3H45V57H4V85a4,4,0,0,0,4,4H98a4,4,0,0,0,4-4V57Z"/></g><g id="Inner_Lines" data-name="Inner Lines" class="cls-4"><path d="M8,76a1,1,0,0,0-1-1H4v2H7A1,1,0,0,0,8,76ZM6,72a1,1,0,0,0-1-1H4v2H5A1,1,0,0,0,6,72Zm3,7H4v2H9a1,1,0,0,0,0-2ZM97,37a1,1,0,1,0,0,2h5V37Zm1,5a1,1,0,0,0,1,1h3V41H99A1,1,0,0,0,98,42Zm2,4a1,1,0,0,0,1,1h1V45h-1A1,1,0,0,0,100,46Z"/></g><g id="Shadows" class="cls-5"><path d="M43,64a2,2,0,0,0,2,2H61a2,2,0,0,0,2-2V60a2,2,0,0,1-2,2H45a2,2,0,0,1-2-2Zm0-7H4v2H43Zm18,1H45v2H61Zm2-1v2h39V57ZM98,87H8a4,4,0,0,1-4-4v2a4,4,0,0,0,4,4H98a4,4,0,0,0,4-4V83A4,4,0,0,1,98,87Z"/></g><g id="Outline"><path class="cls-6" d="M98,27H75V17a8,8,0,0,0-8-8H39a8,8,0,0,0-8,8V27H8a8,8,0,0,0-8,8V85a8,8,0,0,0,8,8H98a8,8,0,0,0,8-8V35A8,8,0,0,0,98,27ZM35,17a4,4,0,0,1,4-4H67a4,4,0,0,1,4,4V27H67V17H39V27H35Zm28,4v6H43V21Zm39,64a4,4,0,0,1-4,4H8a4,4,0,0,1-4-4V57H43v3a2,2,0,0,0,2,2H61a2,2,0,0,0,2-2V57h39ZM45,60V50h2V60Zm4,0V50h8V60Zm10,0V50h2V60Zm43-7H63V50a2,2,0,0,0-2-2H45a2,2,0,0,0-2,2v3H4V35a4,4,0,0,1,4-4H98a4,4,0,0,1,4,4Z"/></g></g></svg>