<svg xmlns="http://www.w3.org/2000/svg" viewBox="0 0 106 106"><defs><style>.cls-1{fill:#fff;}.cls-2{fill:#70cbf6;}.cls-3{fill:#171c1f;}.cls-4{fill:#ff7575;}.cls-5{opacity:0.1;}.cls-6{opacity:0.25;}</style></defs><title>compass</title><g id="Compass"><g id="Fill"><path class="cls-1" d="M59.62,16.5a8,8,0,1,0-13.23,0,44,44,0,1,0,13.23,0ZM53,13a1,1,0,1,1,1-1A1,1,0,0,1,53,13Z"/></g><g id="Blue"><circle class="cls-2" cx="53" cy="60" r="35"/></g><g id="Black"><path class="cls-3" d="M46.24,52.22l-.53.54-.48.49c-3.08,3.08-6.18,15.2-7.67,22.2,7-1.49,19.15-4.59,22.23-7.67l.6-.62.39-.4c3.08-3.08,6.17-15.2,7.66-22.2C61.45,46,49.31,49.14,46.24,52.22Z"/></g><g id="Red"><path class="cls-4" d="M47.66,53.25,59.77,65.35c1.84-2.09,4.35-9.3,6.52-18.62C57,48.9,49.76,51.41,47.66,53.25Z"/></g><g id="White"><path class="cls-1" d="M46.25,54.67c-1.84,2.11-4.35,9.31-6.51,18.6,9.28-2.16,16.48-4.65,18.62-6.49Z"/></g><g id="Shadows" class="cls-5"><path d="M60.39,67.16l-.6.62c-3,3-14.44,6-21.53,7.51-.26,1.12-.5,2.19-.71,3.15,7-1.49,19.15-4.59,22.23-7.67l.6-.62.39-.4c3.08-3.08,6.17-15.2,7.66-22.2l-.71.15c-1.64,7-4.3,16.39-7,19ZM53,30A34,34,0,0,1,86.94,62c0-.66.06-1.33.06-2a34,34,0,0,0-68,0c0,.67,0,1.34.06,2A34,34,0,0,1,53,30ZM95,59A42,42,0,0,1,11,59c0,.33,0,.66,0,1a42,42,0,0,0,84,0C95,59.66,95,59.33,95,59Z"/></g><g id="Inner_Lines" data-name="Inner Lines" class="cls-6"><path class="cls-3" d="M53,84a1,1,0,0,0-1,1v2a1,1,0,0,0,2,0V85A1,1,0,0,0,53,84ZM28,59H26a1,1,0,0,0,0,2h2a1,1,0,1,0,0-2Zm6.62-18.8a1,1,0,0,0-1.41,1.41L34.62,43A1,1,0,0,0,36,41.62ZM53,32a1,1,0,0,0-1,1v2a1,1,0,1,0,2,0V33A1,1,0,0,0,53,32ZM80,59H78a1,1,0,0,0,0,2h2a1,1,0,0,0,0-2ZM71.38,77A1,1,0,1,0,70,78.38l1.41,1.41a1,1,0,0,0,1.41-1.41Z"/></g><g id="Outline"><path class="cls-3" d="M64.49,15.45a12,12,0,1,0-23,0,46,46,0,1,0,23,0ZM53,102a42,42,0,0,1-4.92-83.7,8,8,0,1,1,9.85,0A42,42,0,0,1,53,102Zm0-78A36,36,0,1,0,89,60,36,36,0,0,0,53,24Zm0,70A34,34,0,1,1,87,60,34,34,0,0,1,53,94Zm0-78a4,4,0,1,0-4-4A4,4,0,0,0,53,16Zm0-5a1,1,0,1,1-1,1A1,1,0,0,1,53,11Z"/></g></g></svg>