<svg id="icons" xmlns="http://www.w3.org/2000/svg" viewBox="0 0 56 56"><title>email-open-read</title><g id="email-open-read"><rect x="3" y="20" width="50" height="33" fill="#5de0da"/><polyline points="53 20 53 53 3 53 3 20" fill="none" stroke="#2f6aa8" stroke-linecap="round" stroke-linejoin="round" stroke-width="4"/><polygon points="53 20 28 37 3 20 28 3 53 20" fill="#5de0da"/><polygon points="45 25 28 37 11 25 11 3 45 3 45 25" fill="#f7f7f7"/><polyline points="45 14.56 53 20 28 37 3 20 11 14.56" fill="none" stroke="#2f6aa8" stroke-linecap="round" stroke-linejoin="round" stroke-width="4"/><polyline points="11 25 11 3 45 3 45 25" fill="none" stroke="#2f6aa8" stroke-linecap="round" stroke-linejoin="round" stroke-width="4"/><line x1="18" y1="10" x2="38" y2="10" fill="none" stroke="#2f6aa8" stroke-linecap="round" stroke-linejoin="round" stroke-width="4"/><line x1="18" y1="17" x2="38" y2="17" fill="none" stroke="#2f6aa8" stroke-linecap="round" stroke-linejoin="round" stroke-width="4"/><line x1="20" y1="24" x2="36" y2="24" fill="none" stroke="#2f6aa8" stroke-linecap="round" stroke-linejoin="round" stroke-width="4"/></g></svg>