<svg xmlns="http://www.w3.org/2000/svg" viewBox="0 0 106 106"><defs><style>.cls-1{fill:#171c1f;}.cls-2{fill:#fff;}.cls-3{fill:#ffc868;}.cls-4{opacity:0.1;}.cls-5{opacity:0.25;}</style></defs><title>folder</title><g id="Folder"><g id="Inner_Lines_1" data-name="Inner Lines 1"><path class="cls-1" d="M90.94,68.95l-6.2-55.66a2,2,0,0,0-2.21-1.77l-47.7,5.31a2,2,0,0,0-1.77,2.21l6.2,55.66a2,2,0,0,0,2.21,1.77l47.7-5.31A2,2,0,0,0,90.94,68.95ZM41.25,74.49,35,18.83l47.7-5.31L89,69.17Z"/></g><g id="White"><rect class="cls-2" x="38" y="16" width="48" height="56" transform="translate(-4.49 7.14) rotate(-6.36)"/></g><g id="Inner_Lines_3" data-name="Inner Lines 3"><path class="cls-1" d="M98.19,20.89,50.33,17.28a2,2,0,0,0-2.14,1.84L44,75a2,2,0,0,0,1.84,2.15l47.86,3.61a2,2,0,0,0,2.14-1.84L100,23A2,2,0,0,0,98.19,20.89ZM93.82,78.73,46,75.11l4.22-55.84L98,22.89Z"/></g><g id="White-2" data-name="White"><rect class="cls-2" x="44" y="25" width="56" height="48" transform="matrix(0.08, -1, 1, 0.08, 17.72, 117.11)"/></g><g id="Fill"><path class="cls-3" d="M102,25H73C65,25,42,9,34,9H4a4,4,0,0,0-4,4V93a4,4,0,0,0,4,4h98a4,4,0,0,0,4-4V29A4,4,0,0,0,102,25Z"/></g><g id="Shadows" class="cls-4"><rect x="4" y="83" width="98" height="6"/></g><g id="Inner_Lines_4" data-name="Inner Lines 4" class="cls-5"><rect class="cls-1" x="4" y="83" width="98" height="2"/></g><g id="Outline"><path class="cls-1" d="M102,25H73C65,25,42,9,34,9H4a4,4,0,0,0-4,4V93a4,4,0,0,0,4,4h98a4,4,0,0,0,4-4V29A4,4,0,0,0,102,25Zm0,68H4V13H34c3,0,11.49,4.37,17.67,7.55C61.85,25.81,68.36,29,73,29h29Z"/></g></g></svg>