<svg xmlns="http://www.w3.org/2000/svg" viewBox="0 0 25 25">
  <g fill="none" fill-rule="evenodd" transform="translate(-1 -1)">
    <path fill="#FC0" d="M11.4991,13.8855 C7.6471,16.9655 2.6031,21.4865 2.1011,21.9885 C1.3001,22.7885 1.3001,24.0995 2.1011,24.9005 C2.9011,25.7005 4.2121,25.7005 5.0131,24.9005 C5.5151,24.3985 10.0351,19.3535 13.1151,15.5015 C12.8381,15.2395 12.5611,14.9785 12.2921,14.7085 C12.0221,14.4395 11.7611,14.1625 11.4991,13.8855 M15.5991,1.9985 L15.5381,1.9385 C14.9541,1.3545 13.9981,1.3545 13.4141,1.9385 L6.8021,8.5505 C6.2191,9.1345 6.2191,10.0905 6.8021,10.6745 L6.8621,10.7355 C7.4461,11.3195 8.4021,11.3195 8.9861,10.7355 L15.5991,4.1225 C16.1831,3.5385 16.1831,2.5825 15.5991,1.9985 M25.0621,13.5865 L18.4501,20.1975 C17.8661,20.7815 16.9101,20.7815 16.3261,20.1975 L16.2661,20.1385 C15.6821,19.5545 15.6821,18.5985 16.2661,18.0145 L22.8781,11.4025 C23.4621,10.8185 24.4181,10.8185 25.0021,11.4025 L25.0621,11.4625 C25.6461,12.0465 25.6461,13.0025 25.0621,13.5865"/>
    <path fill="#FF9500" d="M22.8477,11.4324 C22.8577,11.4224 22.8697,11.4154 22.8797,11.4064 C21.9837,10.0834 20.8737,8.7304 19.5727,7.4284 C18.2707,6.1264 16.9167,5.0174 15.5947,4.1204 C15.5847,4.1304 15.5777,4.1434 15.5687,4.1534 L9.0167,10.7044 C9.0057,10.7144 8.9937,10.7214 8.9847,10.7314 C9.8807,12.0534 10.9907,13.4074 12.2917,14.7084 C13.5937,16.0104 14.9477,17.1194 16.2697,18.0164 C16.2797,18.0064 16.2857,17.9944 16.2957,17.9844 L22.8477,11.4324 Z"/>
    <path fill="#000" d="M24.7091,13.2331 L18.0971,19.8451 C17.7061,20.2351 17.0701,20.2371 16.6801,19.8451 L16.6191,19.7851 C16.2291,19.3941 16.2291,18.7581 16.6191,18.3681 L16.6491,18.3371 L23.2011,11.7861 L23.2331,11.7591 C23.2361,11.7561 23.2371,11.7531 23.2401,11.7501 C23.4281,11.5661 23.6691,11.4691 23.9191,11.4691 C24.1921,11.4691 24.4761,11.5831 24.7091,11.8161 C25.0991,12.2071 25.0991,12.8421 24.7091,13.2331 L24.7091,13.2331 Z M12.4371,15.5471 C9.3691,19.3491 5.1451,24.0611 4.6591,24.5461 C4.0521,25.1541 3.0621,25.1541 2.4541,24.5461 C1.8471,23.9381 1.8471,22.9501 2.4541,22.3411 C2.9391,21.8561 7.6511,17.6311 11.4531,14.5641 C11.6131,14.7311 11.7741,14.8981 11.9381,15.0621 C12.1031,15.2261 12.2701,15.3871 12.4371,15.5471 L12.4371,15.5471 Z M15.6561,4.7721 C16.8901,5.6391 18.0871,6.6501 19.2191,7.7821 C20.3511,8.9141 21.3621,10.1101 22.2301,11.3431 L16.2081,17.3651 C14.9751,16.4981 13.7771,15.4871 12.6461,14.3551 C11.5141,13.2231 10.5021,12.0271 9.6351,10.7941 L15.6561,4.7721 Z M7.2161,10.3811 L7.1551,10.3211 C6.7651,9.9301 6.7651,9.2951 7.1551,8.9041 L13.7681,2.2921 C13.9561,2.1041 14.2011,2.0061 14.4551,2.0061 C14.7291,2.0061 15.0121,2.1191 15.2451,2.3521 C15.6361,2.7431 15.6361,3.3791 15.2451,3.7691 L15.2151,3.7991 L8.6311,10.3781 C8.6281,10.3801 8.6271,10.3841 8.6241,10.3871 C8.2331,10.7691 7.6051,10.7701 7.2161,10.3811 L7.2161,10.3811 Z M25.3551,11.0481 C24.7171,10.4101 23.7551,10.3011 22.9961,10.7101 C22.1051,9.4501 21.0791,8.2281 19.9261,7.0751 C18.7721,5.9211 17.5501,4.8951 16.2911,4.0041 C16.6951,3.2451 16.5801,2.2731 15.8921,1.5851 C15.1091,0.8031 13.8411,0.8051 13.0611,1.5851 L6.4481,8.1971 C5.6681,8.9771 5.6681,10.2481 6.4481,11.0281 L6.5091,11.0881 C6.8991,11.4791 7.4121,11.6741 7.9251,11.6741 C8.2511,11.6741 8.5731,11.5871 8.8681,11.4271 C9.4471,12.2461 10.0841,13.0471 10.7771,13.8251 C6.9581,16.9121 2.2371,21.1441 1.7471,21.6341 C0.7491,22.6321 0.7491,24.2551 1.7471,25.2541 C2.2461,25.7531 2.9011,26.0021 3.5571,26.0021 C4.2121,26.0021 4.8671,25.7531 5.3661,25.2541 C5.8561,24.7631 10.0891,20.0431 13.1761,16.2231 C13.9531,16.9171 14.7551,17.5531 15.5731,18.1321 C15.1671,18.8901 15.2731,19.8531 15.9121,20.4921 L15.9731,20.5521 C16.3631,20.9431 16.8761,21.1381 17.3891,21.1381 C17.9001,21.1381 18.4131,20.9431 18.8041,20.5521 L25.4161,13.9401 C26.1951,13.1601 26.1951,11.8891 25.3551,11.0481 L25.3551,11.0481 Z"/>
    <path fill="#000" d="M13.4591,15.1394 L13.0081,14.7034 C12.9061,14.6074 12.7731,14.5514 12.6311,14.5654 C12.4901,14.5744 12.3611,14.6404 12.2731,14.7484 C9.2271,18.5044 5.1521,23.0534 4.6591,23.5464 C4.0731,24.1324 3.0401,24.1324 2.4541,23.5464 C2.2601,23.3514 2.1251,23.1084 2.0551,22.8244 C1.9991,22.6004 1.7991,22.4444 1.5681,22.4444 C1.3401,22.4444 1.1391,22.6004 1.0841,22.8234 C0.8631,23.7094 1.1111,24.6184 1.7471,25.2534 C2.2291,25.7354 2.8711,26.0004 3.5571,26.0004 C4.2421,26.0004 4.8851,25.7354 5.3661,25.2534 C5.8751,24.7444 10.4031,19.6944 13.5061,15.8144 C13.6681,15.6114 13.6471,15.3184 13.4591,15.1394" opacity=".24"/>
  </g>
</svg>
