<svg id="icons" xmlns="http://www.w3.org/2000/svg" viewBox="0 0 128 128"><defs><style>.cls-1{fill:#ffe300;}.cls-2,.cls-3{fill:#303442;}.cls-2{opacity:0.08;}.cls-4{fill:none;stroke:#303442;stroke-linecap:round;stroke-linejoin:round;stroke-width:4px;}</style></defs><title>message</title><path class="cls-1" d="M64,24c25.36,0,46,17.05,46,38s-20.64,38-46,38a53.98528,53.98528,0,0,1-19.03-3.39,3.83659,3.83659,0,0,0-3.2.25l-12.82,6.9A2.0001,2.0001,0,0,1,28,104a1.99576,1.99576,0,0,1-1.97-2.33l2.24-13.45a3.97191,3.97191,0,0,0-.99-3.34A33.5828,33.5828,0,0,1,18,62C18,41.05,38.64,24,64,24ZM88,64a4,4,0,1,0-4,4A3.9989,3.9989,0,0,0,88,64ZM68,64a4,4,0,1,0-4,4A3.9989,3.9989,0,0,0,68,64ZM48,64a4,4,0,1,0-4,4A3.9989,3.9989,0,0,0,48,64Z"/><path class="cls-2" d="M64,90a53.98545,53.98545,0,0,1-19.03-3.39,3.83646,3.83646,0,0,0-3.2.25l-12.82,6.9a1.92867,1.92867,0,0,1-1.6214.11261L26.03,101.67a1.99823,1.99823,0,0,0,2.92,2.09l12.82-6.9a3.83646,3.83646,0,0,1,3.2-.25A53.98545,53.98545,0,0,0,64,100c25.36,0,46-17.05,46-38a31.6008,31.6008,0,0,0-.41095-5C106.61414,75.59485,87.30731,90,64,90Z"/><circle class="cls-3" cx="84" cy="64" r="4"/><circle class="cls-3" cx="64" cy="64" r="4"/><circle class="cls-3" cx="44" cy="64" r="4"/><path class="cls-4" d="M64,24C38.64,24,18,41.05,18,62a33.5828,33.5828,0,0,0,9.28,22.88,3.97191,3.97191,0,0,1,.99,3.34l-2.24,13.45a1.99823,1.99823,0,0,0,2.92,2.09l12.82-6.9a3.83659,3.83659,0,0,1,3.2-.25A53.98528,53.98528,0,0,0,64,100c25.36,0,46-17.05,46-38S89.36,24,64,24Z"/></svg>